# xmcd
#
# Track frame offsets:
#	150
#	13229
#	27418
#	38999
#	51614
#	65405
#	77950
#	90931
#	102728
#	115665
#	126667
#	139514
#	151098
#	163069
#	175792
#	187233
#	200015
#	212430
#	223779
#	236299
#	248119
#	260081
#	273215
#	285846
#
# Disc length: 3981 seconds
# Revision: 0
# Processed by: cddbd v1.5.2PL0 Copyright (c) Steve Scherf et al.
# Submitted via: dBpowerAMP V12.0
#
DISCID=630f8b18
DTITLE=Various Artist - Singles
DYEAR=1937
DGENRE=Classic Country
TTITLE0=Roy Acuff And His Crazy Tennesseans  - Great Speckle Bird
TTITLE1=Roy Acuff - My Mountain Home Sweet Home
TTITLE2=Roy Acuff - You've Gotta See Mama Every Night
TTITLE3=Roy Acuff - Charming Betsy
TTITLE4=Roy Acuff - You're The Only Star In My Blue Heaven
TTITLE5=Roy Acuff - Yes Sir, That's My Baby
TTITLE6=Roy Acuff - Steel Guitar Blues
TTITLE7=Roy Acuff - Red Lips
TTITLE8=Roy Acuff - New Greenback Dollar
TTITLE9=Roy Acuff - Steamboat Whistle Blues
TTITLE10=Roy Acuff - Doin' It The Old Fashioned Way
TTITLE11=Roy Acuff - What Would You Do With Gabriels Trumpet
TTITLE12=Roy Acuff - Blue Ridge Sweetheart
TTITLE13=Roy Acuff - An Old Three Room Shack
TTITLE14=Roy Acuff - Bonnie Blue Eyes
TTITLE15=Roy Acuff - One Old Shirt
TTITLE16=Roy Acuff - Honky Tonk Mamas
TTITLE17=Roy Acuff - Answer To Sparkling Brown Eyes
TTITLE18=Roy Acuff - Ida Red
TTITLE19=Roy Acuff - Just To Ease My Worried Mind
TTITLE20=Roy Acuff - Old Age Pension Cheque
TTITLE21=Roy Acuff - When I Lay My Burden Down
TTITLE22=Roy Acuff - Weary River
TTITLE23=Roy Acuff - Mule Skinner Blues
EXTD=
EXTT0=
EXTT1=
EXTT2=
EXTT3=
EXTT4=
EXTT5=
EXTT6=
EXTT7=
EXTT8=
EXTT9=
EXTT10=
EXTT11=
EXTT12=
EXTT13=
EXTT14=
EXTT15=
EXTT16=
EXTT17=
EXTT18=
EXTT19=
EXTT20=
EXTT21=
EXTT22=
EXTT23=
PLAYORDER=
